<svg width="24" height="25" viewBox="0 0 24 25" fill="none" xmlns="http://www.w3.org/2000/svg">
<g opacity="0.6" clip-path="url(#clip0_406_9324)">
<path d="M12 0.5C5.38312 0.5 0 5.8835 0 12.5C0 19.1165 5.38312 24.5 12 24.5C18.6165 24.5 24 19.1169 24 12.5C24 5.88312 18.6165 0.5 12 0.5ZM12 2C17.7896 2 22.5 6.71 22.5 12.5C22.5 14.6011 21.8775 16.5579 20.8106 18.2011C20.265 15.5484 18.5389 13.2522 16.1145 12.0013C16.8229 11.1058 17.25 9.97775 17.25 8.75C17.25 5.855 14.895 3.5 12 3.5C9.105 3.5 6.75 5.855 6.75 8.75C6.75 9.97775 7.17712 11.1058 7.8855 12.0013C5.46075 13.2522 3.735 15.5484 3.18937 18.2011C2.1225 16.5579 1.5 14.6011 1.5 12.5C1.5 6.71 6.21 2 12 2ZM8.25 8.75C8.25 6.68225 9.93225 5 12 5C14.0677 5 15.75 6.68225 15.75 8.75C15.75 10.8177 14.0677 12.5 12 12.5C9.93225 12.5 8.25 10.8177 8.25 8.75ZM12 23C9.0675 23 6.41325 21.7899 4.50638 19.8447C4.56787 16.8991 6.36825 14.2505 9.06562 13.1015C9.90375 13.6685 10.9136 14 12 14C13.086 14 14.0963 13.6685 14.9344 13.1015C17.6318 14.2505 19.4321 16.8991 19.4936 19.8447C17.5868 21.7899 14.9325 23 12 23Z" fill="black"/>
</g>
<defs>
<clipPath id="clip0_406_9324">
<rect width="24" height="24" fill="white" transform="translate(0 0.5)"/>
</clipPath>
</defs>
</svg>
