<svg width="24" height="25" viewBox="0 0 24 25" fill="none" xmlns="http://www.w3.org/2000/svg">
<g opacity="0.6">
<path d="M2.08594 4.66602H3.51746L5.83931 13.953C4.81811 14.0919 4.02581 14.9605 4.02581 16.0197C4.02581 17.1747 4.96549 18.1144 6.12056 18.1144H20.2412C20.6557 18.1144 20.9912 17.7786 20.9912 17.3644C20.9912 16.9503 20.6557 16.6144 20.2412 16.6144H6.12049C5.79274 16.6144 5.52574 16.3474 5.52574 16.0197C5.52574 15.6915 5.79274 15.4245 6.12049 15.4245H6.79286H18.8965C19.2195 15.4245 19.5059 15.218 19.6077 14.9118L22.2971 6.84312C22.374 6.61422 22.3352 6.36304 22.1946 6.16744C22.0532 5.97154 21.8269 5.85589 21.5859 5.85589H8.13754C7.72339 5.85589 7.38754 6.19174 7.38754 6.60589C7.38754 7.02004 7.72339 7.35589 8.13754 7.35589H20.5452L18.356 13.9246H7.37839L4.83071 3.73407C4.74716 3.40039 4.44724 3.16602 4.10306 3.16602H2.08594C1.67179 3.16602 1.33594 3.50187 1.33594 3.91602C1.33594 4.33017 1.67179 4.66602 2.08594 4.66602Z" fill="black"/>
<path d="M15.332 20.2104C15.332 21.2829 16.202 22.1529 17.2745 22.1529C18.3395 22.1529 19.2095 21.2829 19.2095 20.2104C19.2095 19.1454 18.3395 18.2754 17.2745 18.2754C16.202 18.2754 15.332 19.1454 15.332 20.2104ZM17.7095 20.2104C17.7095 20.4504 17.5145 20.6529 17.2745 20.6529C17.027 20.6529 16.832 20.4504 16.832 20.2104C16.832 19.9704 17.027 19.7754 17.2745 19.7754C17.5145 19.7754 17.7095 19.9704 17.7095 20.2104Z" fill="black"/>
<path d="M5.83594 20.2104C5.83594 21.2829 6.70594 22.1529 7.77094 22.1529C8.84344 22.1529 9.71344 21.2829 9.71344 20.2104C9.71344 19.1454 8.84344 18.2754 7.77094 18.2754C6.70594 18.2754 5.83594 19.1454 5.83594 20.2104ZM8.21344 20.2104C8.21344 20.4504 8.01094 20.6529 7.77094 20.6529C7.53094 20.6529 7.33594 20.4504 7.33594 20.2104C7.33594 19.9704 7.53094 19.7754 7.77094 19.7754C8.01094 19.7754 8.21344 19.9704 8.21344 20.2104Z" fill="black"/>
<path d="M11.5 12.7344H14.8618C15.2763 12.7344 15.6118 12.3985 15.6118 11.9844C15.6118 11.5702 15.2763 11.2344 14.8618 11.2344H11.5C11.0859 11.2344 10.75 11.5702 10.75 11.9844C10.75 12.3985 11.0858 12.7344 11.5 12.7344Z" fill="black"/>
<path d="M11.5 10.0449H14.8618C15.2763 10.0449 15.6118 9.70907 15.6118 9.29492C15.6118 8.88077 15.2763 8.54492 14.8618 8.54492H11.5C11.0859 8.54492 10.75 8.88077 10.75 9.29492C10.75 9.70907 11.0858 10.0449 11.5 10.0449Z" fill="black"/>
</g>
</svg>
