<svg width="25" height="24" viewBox="0 0 25 24" fill="none" xmlns="http://www.w3.org/2000/svg">
<path fill-rule="evenodd" clip-rule="evenodd" d="M12.5 1C6.425 1 1.5 5.925 1.5 12C1.5 18.075 6.425 23 12.5 23C18.575 23 23.5 18.075 23.5 12C23.5 5.925 18.575 1 12.5 1ZM17.268 10.14C17.3558 10.0396 17.4226 9.92274 17.4646 9.79617C17.5065 9.6696 17.5227 9.53591 17.5123 9.40298C17.5018 9.27006 17.4648 9.14056 17.4036 9.02213C17.3423 8.90369 17.258 8.79871 17.1555 8.71334C17.0531 8.62798 16.9346 8.56396 16.8071 8.52506C16.6796 8.48616 16.5455 8.47316 16.4129 8.48683C16.2802 8.50049 16.1517 8.54055 16.0347 8.60463C15.9178 8.66872 15.8149 8.75554 15.732 8.86L11.432 14.019L9.207 11.793C9.0184 11.6108 8.7658 11.51 8.5036 11.5123C8.2414 11.5146 7.99059 11.6198 7.80518 11.8052C7.61977 11.9906 7.5146 12.2414 7.51233 12.5036C7.51005 12.7658 7.61084 13.0184 7.793 13.207L10.793 16.207C10.8913 16.3052 11.0089 16.3818 11.1384 16.4321C11.2679 16.4823 11.4065 16.505 11.5453 16.4986C11.684 16.4923 11.82 16.4572 11.9444 16.3954C12.0688 16.3337 12.1791 16.2467 12.268 16.14L17.268 10.14Z" fill="#FEFEFE"/>
</svg>
