<svg width="20" height="20" viewBox="0 0 20 20" fill="none" xmlns="http://www.w3.org/2000/svg">
<path fill-rule="evenodd" clip-rule="evenodd" d="M9.9987 4.47232C10.7661 3.6995 11.7562 3.42425 12.7058 3.43799C14.9882 3.47101 17.2918 5.33355 17.2918 8.03166C17.2918 10.627 15.6318 12.7877 13.99 14.2566C13.1593 14.9998 12.3072 15.5899 11.6153 15.9962C11.2695 16.1993 10.9579 16.3599 10.7036 16.4718C10.5769 16.5276 10.458 16.5741 10.3521 16.6076C10.26 16.6369 10.1301 16.6723 9.99989 16.6723C9.86965 16.6723 9.73979 16.6369 9.64766 16.6076C9.54176 16.5741 9.42287 16.5276 9.29617 16.4718C9.04189 16.3599 8.73024 16.1993 8.38449 15.9962C7.69255 15.5899 6.84053 14.9998 6.0098 14.2566C4.36799 12.7877 2.70801 10.627 2.70801 8.03166C2.70801 5.33992 5.00624 3.43793 7.30189 3.43793C8.22574 3.43793 9.22538 3.701 9.9987 4.47232ZM12.69 4.53162C11.8166 4.51899 11.0027 4.81549 10.4549 5.63713C10.3535 5.78926 10.1827 5.88064 9.99989 5.88064C9.81705 5.88064 9.6463 5.78927 9.54487 5.63713C9.0004 4.82046 8.1717 4.53168 7.30189 4.53168C5.55053 4.53168 3.80176 6.00208 3.80176 8.03166C3.80176 10.1577 5.17703 12.0439 6.7391 13.4415C7.51031 14.1315 8.30239 14.6796 8.93837 15.0531C9.25658 15.24 9.52985 15.3797 9.73665 15.4707C9.8405 15.5164 9.92119 15.5469 9.97832 15.5651C9.98648 15.5677 9.99365 15.5698 9.99989 15.5716C10.0061 15.5698 10.0133 15.5677 10.0215 15.5651C10.0786 15.5469 10.1593 15.5164 10.2631 15.4707C10.4699 15.3797 10.7432 15.24 11.0614 15.0531C11.6974 14.6796 12.4895 14.1315 13.2607 13.4415C14.8227 12.0439 16.198 10.1577 16.198 8.03166C16.198 6.00846 14.4546 4.55716 12.69 4.53162Z" fill="black" fill-opacity="0.7"/>
</svg>
