<svg width="20" height="20" viewBox="0 0 20 20" fill="none" xmlns="http://www.w3.org/2000/svg">
<path d="M0.625 2.53385H1.81794L3.75281 10.4825C2.90181 10.6015 2.24156 11.3449 2.24156 12.2514C2.24156 13.24 3.02463 14.0443 3.98719 14.0443H15.7544C16.0998 14.0443 16.3794 13.7569 16.3794 13.4024C16.3794 13.0479 16.0998 12.7605 15.7544 12.7605H3.98713C3.714 12.7605 3.4915 12.5319 3.4915 12.2514C3.4915 11.9706 3.714 11.7421 3.98713 11.7421H4.54744H14.6338C14.903 11.7421 15.1416 11.5653 15.2264 11.3032L17.4676 4.39722C17.5317 4.20131 17.4994 3.98633 17.3822 3.81892C17.2644 3.65124 17.0758 3.55226 16.875 3.55226H5.668C5.32288 3.55226 5.043 3.83971 5.043 4.19418C5.043 4.54865 5.32288 4.83611 5.668 4.83611H16.0077L14.1834 10.4583H5.03537L2.91231 1.73619C2.84269 1.4506 2.59275 1.25 2.30594 1.25H0.625C0.279875 1.25 0 1.53745 0 1.89192C0 2.24639 0.279875 2.53385 0.625 2.53385Z" fill="black" fill-opacity="0.7"/>
<path d="M11.6621 15.8359C11.6621 16.7538 12.3871 17.4984 13.2809 17.4984C14.1684 17.4984 14.8934 16.7538 14.8934 15.8359C14.8934 14.9243 14.1684 14.1797 13.2809 14.1797C12.3871 14.1797 11.6621 14.9243 11.6621 15.8359ZM13.6434 15.8359C13.6434 16.0413 13.4809 16.2146 13.2809 16.2146C13.0746 16.2146 12.9121 16.0413 12.9121 15.8359C12.9121 15.6304 13.0746 15.4635 13.2809 15.4635C13.4809 15.4635 13.6434 15.6304 13.6434 15.8359Z" fill="black" fill-opacity="0.7"/>
<path d="M3.75 15.8359C3.75 16.7538 4.475 17.4984 5.3625 17.4984C6.25625 17.4984 6.98125 16.7538 6.98125 15.8359C6.98125 14.9243 6.25625 14.1797 5.3625 14.1797C4.475 14.1797 3.75 14.9243 3.75 15.8359ZM5.73125 15.8359C5.73125 16.0413 5.5625 16.2146 5.3625 16.2146C5.1625 16.2146 5 16.0413 5 15.8359C5 15.6304 5.1625 15.4635 5.3625 15.4635C5.5625 15.4635 5.73125 15.6304 5.73125 15.8359Z" fill="black" fill-opacity="0.7"/>
<path d="M8.46875 9.4401H11.2703C11.6157 9.4401 11.8953 9.15264 11.8953 8.79817C11.8953 8.4437 11.6157 8.15625 11.2703 8.15625H8.46875C8.12363 8.15625 7.84375 8.4437 7.84375 8.79817C7.84375 9.15264 8.12356 9.4401 8.46875 9.4401Z" fill="black" fill-opacity="0.7"/>
<path d="M8.46875 7.13932H11.2703C11.6157 7.13932 11.8953 6.85186 11.8953 6.49739C11.8953 6.14292 11.6157 5.85547 11.2703 5.85547H8.46875C8.12363 5.85547 7.84375 6.14292 7.84375 6.49739C7.84375 6.85186 8.12356 7.13932 8.46875 7.13932Z" fill="black" fill-opacity="0.7"/>
</svg>
