<svg width="35" height="35" viewBox="0 0 35 35" fill="none" xmlns="http://www.w3.org/2000/svg">
<path fill-rule="evenodd" clip-rule="evenodd" d="M17.4976 5.55775C19.0235 4.02099 20.9925 3.47365 22.8807 3.50097C27.4193 3.56664 32 7.27031 32 12.6355C32 17.7964 28.6991 22.0929 25.4343 25.0139C23.7824 26.4919 22.0882 27.6652 20.7123 28.4732C20.0247 28.877 19.405 29.1964 18.8994 29.4189C18.6474 29.5298 18.411 29.6222 18.2004 29.689C18.0172 29.7471 17.759 29.8175 17.5 29.8175C17.241 29.8175 16.9828 29.7471 16.7996 29.689C16.589 29.6222 16.3526 29.5298 16.1006 29.4189C15.595 29.1964 14.9753 28.877 14.2878 28.4732C12.9118 27.6652 11.2176 26.4919 9.56567 25.0139C6.30089 22.0929 3 17.7964 3 12.6356C3 7.28299 7.57007 3.50086 12.135 3.50086C13.9721 3.50086 15.9599 4.02398 17.4976 5.55775ZM22.8493 5.67568C21.1125 5.65055 19.4941 6.24016 18.4048 7.87399C18.2031 8.17651 17.8636 8.35822 17.5 8.35822C17.1364 8.35823 16.7969 8.17652 16.5952 7.87399C15.5125 6.25004 13.8646 5.67579 12.135 5.67579C8.65238 5.67579 5.17494 8.5997 5.17494 12.6356C5.17494 16.8632 7.90969 20.6139 11.0159 23.393C12.5494 24.7651 14.1245 25.8551 15.3892 26.5978C16.0219 26.9694 16.5653 27.2472 16.9765 27.4281C17.183 27.519 17.3435 27.5798 17.4571 27.6158C17.4733 27.621 17.4876 27.6253 17.5 27.6289C17.5124 27.6253 17.5267 27.621 17.5429 27.6158C17.6565 27.5798 17.817 27.519 18.0235 27.4281C18.4347 27.2472 18.9781 26.9694 19.6109 26.5978C20.8755 25.8551 22.4506 24.7651 23.9841 23.393C27.0903 20.6139 29.8251 16.8632 29.8251 12.6355C29.8251 8.61238 26.3583 5.72645 22.8493 5.67568Z" fill="#2AA952"/>
</svg>
