<svg width="15" height="14" viewBox="0 0 15 14" fill="none" xmlns="http://www.w3.org/2000/svg">
<path d="M7.36037 4.35547C6.65899 4.35547 5.98634 4.63409 5.49039 5.13004C4.99444 5.62599 4.71582 6.29864 4.71582 7.00002C4.71582 7.70139 4.99444 8.37405 5.49039 8.86999C5.98634 9.36594 6.65899 9.64456 7.36037 9.64456C8.06175 9.64456 8.7344 9.36594 9.23035 8.86999C9.7263 8.37405 10.0049 7.70139 10.0049 7.00002C10.0049 6.29864 9.7263 5.62599 9.23035 5.13004C8.7344 4.63409 8.06175 4.35547 7.36037 4.35547V4.35547ZM7.36037 8.71749C6.90472 8.71749 6.46773 8.53648 6.14553 8.21428C5.82333 7.89209 5.64233 7.4551 5.64233 6.99944C5.64233 6.54379 5.82333 6.1068 6.14553 5.78461C6.46773 5.46241 6.90472 5.2814 7.36037 5.2814C7.81602 5.2814 8.25301 5.46241 8.57521 5.78461C8.8974 6.1068 9.07841 6.54379 9.07841 6.99944C9.07841 7.4551 8.8974 7.89209 8.57521 8.21428C8.25301 8.53648 7.81602 8.71749 7.36037 8.71749V8.71749Z" fill="black"/>
<path d="M10.1107 4.87563C10.4512 4.87563 10.7272 4.5996 10.7272 4.25911C10.7272 3.91861 10.4512 3.64258 10.1107 3.64258C9.77017 3.64258 9.49414 3.91861 9.49414 4.25911C9.49414 4.5996 9.77017 4.87563 10.1107 4.87563Z" fill="black"/>
<path d="M12.2421 3.63185C12.1097 3.28994 11.9074 2.97945 11.6481 2.72024C11.3888 2.46104 11.0782 2.25883 10.7363 2.12656C10.3361 1.97635 9.91336 1.89513 9.48604 1.88635C8.93528 1.86233 8.76085 1.85547 7.36422 1.85547C5.9676 1.85547 5.78859 1.85547 5.24241 1.88635C4.81541 1.89468 4.39297 1.97592 3.99334 2.12656C3.6513 2.25867 3.34065 2.46083 3.08132 2.72005C2.822 2.97928 2.61972 3.28985 2.48748 3.63185C2.33724 4.03197 2.25621 4.45474 2.24785 4.88206C2.22326 5.43224 2.21582 5.60668 2.21582 7.00387C2.21582 8.4005 2.21582 8.57836 2.24785 9.12569C2.25643 9.55348 2.33707 9.97556 2.48748 10.3765C2.6201 10.7183 2.82257 11.0288 3.08195 11.288C3.34134 11.5472 3.65194 11.7494 3.99391 11.8818C4.39279 12.038 4.8154 12.125 5.24355 12.1391C5.79431 12.1631 5.96875 12.1706 7.36537 12.1706C8.76199 12.1706 8.941 12.1706 9.48718 12.1391C9.91446 12.1304 10.3372 12.0494 10.7374 11.8995C11.0793 11.7669 11.3897 11.5645 11.649 11.3053C11.9083 11.046 12.1107 10.7355 12.2433 10.3936C12.3937 9.99329 12.4743 9.57121 12.4829 9.14342C12.5075 8.59323 12.5149 8.4188 12.5149 7.0216C12.5149 5.62441 12.5149 5.44711 12.4829 4.89979C12.4762 4.46643 12.3948 4.03748 12.2421 3.63185V3.63185ZM11.5455 9.08337C11.5418 9.41297 11.4817 9.73949 11.3676 10.0488C11.2818 10.2712 11.1503 10.4731 10.9816 10.6417C10.813 10.8102 10.611 10.9416 10.3885 11.0273C10.0827 11.1408 9.75962 11.201 9.43342 11.2052C8.8901 11.2303 8.73683 11.2366 7.34364 11.2366C5.9493 11.2366 5.80689 11.2366 5.25328 11.2052C4.92724 11.2012 4.60434 11.141 4.29875 11.0273C4.07552 10.9421 3.87267 10.811 3.70332 10.6424C3.53396 10.4738 3.40188 10.2716 3.31562 10.0488C3.20321 9.74282 3.14308 9.42013 3.13775 9.09423C3.11316 8.55091 3.10744 8.39764 3.10744 7.00445C3.10744 5.61068 3.10744 5.46827 3.13775 4.91409C3.14145 4.58467 3.20161 4.25834 3.31562 3.94926C3.49005 3.49802 3.8475 3.14286 4.29875 2.97014C4.60449 2.85698 4.9273 2.79682 5.25328 2.79227C5.79717 2.76768 5.94987 2.76081 7.34364 2.76081C8.7374 2.76081 8.88038 2.76081 9.43342 2.79227C9.75965 2.79619 10.0828 2.85637 10.3885 2.97014C10.611 3.05608 10.813 3.18758 10.9816 3.3562C11.1502 3.52482 11.2817 3.72682 11.3676 3.94926C11.4801 4.25521 11.5402 4.57789 11.5455 4.90379C11.5701 5.44768 11.5764 5.60039 11.5764 6.99415C11.5764 8.38734 11.5764 8.53719 11.5518 9.08394H11.5455V9.08337Z" fill="black"/>
</svg>
