<svg width="21" height="20" viewBox="0 0 21 20" fill="none" xmlns="http://www.w3.org/2000/svg">
<path d="M10.667 1.79987C13.337 1.79987 13.6532 1.80987 14.7079 1.85796C15.3421 1.86572 15.9703 1.98216 16.5651 2.20223C16.9964 2.36857 17.3882 2.62339 17.7151 2.95029C18.042 3.27718 18.2968 3.6689 18.4632 4.10023C18.6833 4.69502 18.7997 5.32314 18.8075 5.95729C18.8551 7.012 18.8656 7.32817 18.8656 9.99805C18.8656 12.6679 18.8556 12.9841 18.8075 14.0388C18.7997 14.673 18.6833 15.3011 18.4632 15.8959C18.2968 16.3272 18.042 16.7189 17.7151 17.0458C17.3882 17.3727 16.9964 17.6275 16.5651 17.7939C15.9703 18.0139 15.3421 18.1304 14.7079 18.1381C13.6537 18.1858 13.3375 18.1962 10.667 18.1962C7.99652 18.1962 7.68033 18.1862 6.62604 18.1381C5.99186 18.1304 5.36371 18.0139 4.7689 17.7939C4.33754 17.6275 3.94581 17.3727 3.6189 17.0458C3.29199 16.7189 3.03716 16.3272 2.8708 15.8959C2.65073 15.3011 2.53428 14.673 2.52652 14.0388C2.4789 12.9841 2.46842 12.6679 2.46842 9.99805C2.46842 7.32817 2.47842 7.012 2.52652 5.95729C2.53428 5.32314 2.65073 4.69502 2.8708 4.10023C3.03716 3.6689 3.29199 3.27718 3.6189 2.95029C3.94581 2.62339 4.33754 2.36857 4.7689 2.20223C5.36371 1.98216 5.99186 1.86572 6.62604 1.85796C7.6808 1.81034 7.99699 1.79987 10.667 1.79987ZM10.667 -0.00195312C7.95271 -0.00195312 7.6108 0.00947487 6.54414 0.058044C5.71416 0.0745517 4.89299 0.231693 4.11556 0.522784C3.44866 0.774041 2.84461 1.16778 2.34556 1.67654C1.83633 2.17574 1.44223 2.7801 1.1908 3.44741C0.899697 4.2248 0.742548 5.04592 0.72604 5.87586C0.678421 6.94153 0.666992 7.28341 0.666992 9.99757C0.666992 12.7117 0.678421 13.0536 0.726992 14.1202C0.743501 14.9502 0.90065 15.7713 1.19175 16.5487C1.4429 17.2159 1.83667 17.8203 2.34556 18.3196C2.84488 18.8284 3.44927 19.2222 4.11652 19.4733C4.89394 19.7644 5.71511 19.9215 6.54509 19.9381C7.61175 19.9857 7.95223 19.998 10.6679 19.998C13.3837 19.998 13.7241 19.9866 14.7908 19.9381C15.6208 19.9215 16.4419 19.7644 17.2194 19.4733C17.8835 19.2159 18.4865 18.8228 18.99 18.319C19.4934 17.8152 19.8862 17.212 20.1432 16.5477C20.4343 15.7703 20.5914 14.9492 20.6079 14.1193C20.6556 13.0536 20.667 12.7117 20.667 9.99757C20.667 7.28341 20.6556 6.94153 20.607 5.87491C20.5905 5.04497 20.4333 4.22384 20.1422 3.44645C19.8911 2.77924 19.4973 2.17488 18.9884 1.67559C18.4891 1.16672 17.8847 0.772966 17.2175 0.521831C16.44 0.230741 15.6189 0.0735995 14.7889 0.0570917C13.7232 0.00947494 13.3813 -0.00195312 10.667 -0.00195312Z" fill="black" fill-opacity="0.8"/>
<path d="M10.6655 4.86328C9.64986 4.86328 8.65701 5.16444 7.81253 5.72868C6.96804 6.29292 6.30985 7.0949 5.92117 8.0332C5.5325 8.9715 5.4308 10.004 5.62895 11.0001C5.82709 11.9962 6.31618 12.9111 7.03435 13.6293C7.75253 14.3474 8.66754 14.8365 9.66368 15.0346C10.6598 15.2327 11.6923 15.131 12.6307 14.7424C13.569 14.3537 14.371 13.6956 14.9353 12.8511C15.4996 12.0067 15.8008 11.0139 15.8008 9.99828C15.8008 8.63639 15.2597 7.33028 14.2967 6.36729C13.3336 5.40429 12.0275 4.86328 10.6655 4.86328ZM10.6655 13.3315C10.0062 13.3315 9.36178 13.136 8.81361 12.7697C8.26545 12.4035 7.83821 11.8829 7.58592 11.2738C7.33362 10.6648 7.26761 9.99458 7.39623 9.348C7.52485 8.70143 7.84232 8.10752 8.30849 7.64137C8.77467 7.17521 9.36861 6.85776 10.0152 6.72915C10.6618 6.60053 11.332 6.66654 11.9411 6.91882C12.5502 7.1711 13.0708 7.59832 13.4371 8.14646C13.8034 8.6946 13.9988 9.33904 13.9988 9.99828C13.9988 10.8823 13.6477 11.7301 13.0225 12.3552C12.3974 12.9803 11.5496 13.3315 10.6655 13.3315Z" fill="black" fill-opacity="0.8"/>
<path d="M16.0045 5.85887C16.6672 5.85887 17.2044 5.32164 17.2044 4.65893C17.2044 3.99622 16.6672 3.45898 16.0045 3.45898C15.3419 3.45898 14.8047 3.99622 14.8047 4.65893C14.8047 5.32164 15.3419 5.85887 16.0045 5.85887Z" fill="black" fill-opacity="0.8"/>
</svg>
