<svg width="20" height="20" viewBox="0 0 20 20" fill="none" xmlns="http://www.w3.org/2000/svg">
<path fill-rule="evenodd" clip-rule="evenodd" d="M14.7272 7.32281C14.4088 6.93384 13.9372 6.70898 13.4398 6.70898H5.31116C4.81378 6.70898 4.34221 6.93384 4.02381 7.32281C3.3813 8.10723 2.13015 9.63582 1.48295 10.426C1.13941 10.8461 1.1803 11.4667 1.57613 11.8359C3.00693 13.1714 7.28928 17.1675 8.69561 18.4798C9.08004 18.8387 9.66993 18.8387 10.0544 18.4798C11.4607 17.1675 15.743 13.1714 17.1742 11.8359C17.5697 11.4667 17.6106 10.8461 17.267 10.426L14.7272 7.32281ZM9.37498 17.6527L11.5777 11.4858H7.17231L9.37498 17.6527ZM10.1579 17.4575L16.5571 11.4858H12.2909L10.1579 17.4575ZM8.59205 17.4575L6.45908 11.4858H2.19282L8.59205 17.4575ZM11.4801 7.39139L12.318 10.8034H16.7033L14.212 7.75989C14.021 7.52651 13.7381 7.39139 13.4398 7.39139H11.4801ZM7.96094 7.39139L7.12304 10.8034H11.6269L10.789 7.39139H7.96094ZM7.26984 7.39139H5.31116C5.01253 7.39139 4.72965 7.52616 4.53861 7.75955L2.04669 10.8034H6.43194L7.26984 7.39139Z" fill="black"/>
<path fill-rule="evenodd" clip-rule="evenodd" d="M6.7094 3.40037L8.93353 1.41876C9.18691 1.19375 9.56363 1.19375 9.81701 1.41876L12.0411 3.40037L13.5936 1.82016C13.7853 1.62511 14.0736 1.56665 14.3243 1.67228C14.5743 1.77791 14.7378 2.02668 14.7378 2.30279V4.66205C14.7378 5.02398 14.5964 5.37117 14.345 5.62714C14.0937 5.88295 13.7525 6.02674 13.3972 6.02674H5.35334C4.99807 6.02674 4.65687 5.88295 4.4055 5.62714C4.15413 5.37117 4.0127 5.02398 4.0127 4.66205V2.30279C4.0127 2.02668 4.17625 1.77791 4.42628 1.67228C4.67698 1.56665 4.96522 1.62511 5.15693 1.82016L6.7094 3.40037ZM9.37527 1.93234C8.55508 2.66304 7.7348 3.39364 6.91452 4.12423C6.7818 4.24247 6.58204 4.23576 6.45669 4.10867C6.45669 4.10867 5.37747 3.00978 4.68302 2.30279V4.66205C4.68302 4.84302 4.7534 5.01661 4.87942 5.14452C5.00477 5.27258 5.1757 5.34448 5.35334 5.34448H13.3972C13.5748 5.34448 13.7458 5.27258 13.8711 5.14452C13.9971 5.01661 14.0675 4.84302 14.0675 4.66205V2.30279L12.2939 4.10868C12.1685 4.23576 11.9687 4.24247 11.836 4.12423L9.37527 1.93234Z" fill="black"/>
</svg>
