<svg width="24" height="24" viewBox="0 0 24 24" fill="none" xmlns="http://www.w3.org/2000/svg">
<path d="M12.9265 24C12.3728 24 12.0037 23.85 11.6346 23.55L0.561152 14.55C0.00747836 14.1 -0.17708 13.5 0.192036 12.9C0.376593 12.3 1.11482 12 1.85305 12H7.38979C8.86625 12 10.3427 11.55 11.2655 10.65C12.3728 9.9 12.9265 8.7 12.9265 7.5C12.9265 6.3 12.3728 5.1 11.2655 4.35C10.3427 3.45 8.86625 3 7.38979 3H1.85305C0.745709 3 0.00747801 2.4 0.00747801 1.5C0.00747801 0.6 0.745709 0 1.85305 0H22.1544C23.2617 0 24 0.6 24 1.5C24 2.4 23.2617 3 22.1544 3H14.7721C15.8794 4.35 16.6177 5.85 16.6177 7.5C16.6177 9.45 15.6949 11.4 13.8493 12.75C12.1883 14.25 9.78904 15 7.38979 15H6.28244L14.2184 21.45C14.9567 22.05 14.9567 22.95 14.2184 23.55C13.8493 23.85 13.4802 24 12.9265 24Z" fill="#5BB955"/>
<path d="M22.1538 9H1.85241C0.745067 9 0.00683594 8.4 0.00683594 7.5C0.00683594 6.6 0.745067 6 1.85241 6H22.1538C23.2611 6 23.9993 6.6 23.9993 7.5C23.9993 8.4 23.2611 9 22.1538 9Z" fill="#5BB955"/>
</svg>
