<svg width="18" height="18" viewBox="0 0 18 18" fill="none" xmlns="http://www.w3.org/2000/svg">
<path d="M16.6223 17.0004H8.52431M2.0459 17.0004H5.2851M15.0027 17.0004V11.4004M3.6655 17.0004V11.4004" stroke="#8F8F8F" stroke-width="1.23721" stroke-linecap="round"/>
<path d="M9.33341 1H5.66663C4.69244 1 4.20575 1 3.81462 1.2392C3.42267 1.4776 3.20483 1.908 2.76997 2.7688L1.6322 5.608C1.36982 6.264 1.13984 7.0368 1.58199 7.5912C1.79029 7.85282 2.07599 8.04375 2.3993 8.1374C2.72261 8.23105 3.06744 8.22276 3.38576 8.11368C3.70408 8.00461 3.98004 7.80017 4.17521 7.52886C4.37038 7.25754 4.47503 6.93285 4.4746 6.6C4.4746 7.02435 4.64524 7.43131 4.94897 7.73137C5.25271 8.03143 5.66466 8.2 6.09421 8.2C6.52375 8.2 6.9357 8.03143 7.23944 7.73137C7.54317 7.43131 7.71381 7.02435 7.71381 6.6C7.71381 7.02435 7.88445 7.43131 8.18818 7.73137C8.49192 8.03143 8.90387 8.2 9.33341 8.2C9.76296 8.2 10.1749 8.03143 10.4786 7.73137C10.7824 7.43131 10.953 7.02435 10.953 6.6C10.953 7.02435 11.1237 7.43131 11.4274 7.73137C11.7311 8.03143 12.1431 8.2 12.5726 8.2C13.0022 8.2 13.4141 8.03143 13.7179 7.73137C14.0216 7.43131 14.1922 7.02435 14.1922 6.6C14.1922 6.93258 14.297 7.25691 14.4922 7.52789C14.6874 7.79886 14.9632 8.00301 15.2813 8.11195C15.5994 8.22089 15.9439 8.2292 16.267 8.13573C16.5901 8.04225 16.8757 7.85164 17.084 7.5904C17.5262 7.036 17.2962 6.2632 17.0338 5.6072L15.8969 2.7688C15.462 1.908 15.2442 1.4776 14.8522 1.2392C14.4611 1 13.9744 1 13.0002 1H12.5726" stroke="#8F8F8F" stroke-width="1.23721" stroke-linecap="round" stroke-linejoin="round"/>
</svg>
